<?xml version="1.0" encoding="iso-8859-1"?>
<!-- Generator: Adobe Illustrator 19.1.0, SVG Export Plug-In . SVG Version: 6.00 Build 0)  -->
<svg version="1.1" id="Capa_1" xmlns="http://www.w3.org/2000/svg" xmlns:xlink="http://www.w3.org/1999/xlink" x="0px" y="0px"
	 viewBox="0 0 284.821 284.821" style="enable-background:new 0 0 284.821 284.821;" xml:space="preserve">
<g>
	<g>
		<path d="M142.403,228.084c-7.725,0-14.987-3.014-20.45-8.471L8.455,106.102c-11.273-11.273-11.273-29.621,0-40.894
			c5.463-5.463,12.725-8.471,20.457-8.471s14.994,3.008,20.45,8.471l93.041,93.054l93.048-93.054
			c5.463-5.463,12.719-8.471,20.45-8.471s14.987,3.008,20.45,8.471c5.469,5.463,8.471,12.725,8.471,20.45s-3.008,14.987-8.471,20.45
			L162.859,219.594C157.39,225.076,150.121,228.084,142.403,228.084z M28.911,69.591c-4.293,0-8.329,1.671-11.369,4.704
			c-6.266,6.266-6.266,16.459,0,22.719L131.04,210.519c6.016,6.016,16.433,6.093,22.52,0.186L267.25,97.015
			c3.04-3.04,4.704-7.07,4.704-11.363s-1.671-8.323-4.704-11.363c-6.073-6.067-16.646-6.067-22.719,0L142.403,176.437L40.274,74.296
			C37.234,71.262,33.204,69.591,28.911,69.591z"/>
	</g>
</g>
<g>
</g>
<g>
</g>
<g>
</g>
<g>
</g>
<g>
</g>
<g>
</g>
<g>
</g>
<g>
</g>
<g>
</g>
<g>
</g>
<g>
</g>
<g>
</g>
<g>
</g>
<g>
</g>
<g>
</g>
</svg>
